# xmcd
#
# Track frame offsets:
#	150
#	22326
#	36300
#	52892
#	74896
#	89550
#	103721
#	120563
#	146590
#	163700
#	181549
#	198618
#
# Disc length: 2935 seconds
#
# Revision: 1
# Processed by: cddbd v1.5.1PL2 Copyright (c) Steve Scherf et al.
# Submitted via: audiograbber 1.83.01
#
DISCID=b10b750c
DTITLE=The Flood - The Late Late Show
DYEAR=2006
DGENRE=Country/Rock
TTITLE0=2003
TTITLE1=In And Out Of Time
TTITLE2=Leave Me Alone
TTITLE3=Move On
TTITLE4=Horses
TTITLE5=Hello Blue Sky
TTITLE6=All For The Best
TTITLE7=Zevon Said
TTITLE8=Mayday
TTITLE9=Welcome To The Undertow
TTITLE10=Moon Going Down [in Charley Patton's America]
TTITLE11=Oletta's Rainbow
EXTD=The Flood Rocks!!
EXTT0=
EXTT1=
EXTT2=
EXTT3=
EXTT4=
EXTT5=
EXTT6=
EXTT7=
EXTT8=
EXTT9=
EXTT10=
EXTT11=
PLAYORDER=
